<?xml version="1.0" encoding="UTF-8"?>
<svg id="_图层_1" data-name="图层_1" xmlns="http://www.w3.org/2000/svg" version="1.1" viewBox="0 0 242.62 242.62">
  <!-- Generator: Adobe Illustrator 29.5.1, SVG Export Plug-In . SVG Version: 2.1.0 Build 141)  -->
  <defs>
    <style>
      .st0 {
        fill: #114a84;
      }
    </style>
  </defs>
  <g>
    <path class="st0" d="M61.36,152.9c-.77,0-1.55-.22-2.23-.68-1.83-1.23-2.32-3.72-1.08-5.55l30.24-44.88c1.81-2.69,4.74-4.3,7.81-4.3h5.54l15.59-22.94c1.71-2.51,4.33-4.06,7.2-4.25,2.82-.18,5.57.97,7.54,3.17l16.35,18.28c1.47,1.65,1.33,4.18-.31,5.65-1.65,1.47-4.17,1.33-5.65-.31l-16.35-18.28c-.23-.25-.58-.55-1.04-.52-.4.03-.79.3-1.11.76l-16.78,24.69c-.75,1.1-1.98,1.75-3.31,1.75h-7.66c-.41,0-.85.29-1.18.77l-30.24,44.88c-.77,1.15-2.04,1.77-3.32,1.77Z"/>
    <path class="st0" d="M219.37,170.24H20.95c-2.21,0-4-1.79-4-4s1.79-4,4-4h190.02l-55.19-67.85c-.21-.2-.5-.4-.89-.38-.36.02-.72.24-1.02.62l-13.38,16.88c-1.37,1.73-3.89,2.02-5.62.65-1.73-1.37-2.02-3.89-.65-5.62l13.38-16.88c1.74-2.19,4.26-3.52,6.92-3.64,2.62-.12,5.23.94,7.13,2.92.07.08.15.16.21.24l60.62,74.53c.97,1.2,1.17,2.85.51,4.24-.66,1.39-2.07,2.28-3.61,2.28Z"/>
    <path class="st0" d="M31.66,152.82c-.87,0-1.74-.28-2.47-.86-1.74-1.37-2.03-3.88-.67-5.62l27.59-35.03c3.22-3.93,8.44-4.72,12.47-1.95l12.87,8.86c1.82,1.25,2.28,3.74,1.03,5.56-1.25,1.82-3.74,2.28-5.56,1.03l-12.87-8.86c-.81-.56-1.46.07-1.7.37l-27.54,34.96c-.79,1-1.96,1.52-3.15,1.52Z"/>
  </g>
  <path class="st0" d="M77.16,152.37c-.52,0-1.02-.27-1.3-.75-.41-.72-.17-1.63.55-2.05l25.12-14.47,7.62-15.58c.2-.41.57-.7,1.01-.8l5.54-1.28,4.64-9.58c.06-.13.15-.25.25-.36l6.71-7.28h-10.59c-.55,0-1.06-.3-1.32-.79-.26-.49-.23-1.08.07-1.54,1.31-1.97,4.84-7.57,5.4-9.73.7-2.7,1.09-9.86,1.1-9.93.04-.83.75-1.46,1.58-1.42.83.04,1.46.75,1.42,1.58-.02.31-.41,7.53-1.19,10.53-.53,2.05-2.76,5.83-4.31,8.3h11.26c.6,0,1.13.35,1.37.9s.13,1.18-.27,1.62l-8.88,9.64-4.86,10.03c-.2.41-.57.71-1.01.81l-5.54,1.28-7.5,15.35c-.13.27-.34.49-.6.64l-25.52,14.7c-.24.14-.49.2-.75.2Z"/>
  <path class="st0" d="M117.34,153.06c-.31,0-.63-.1-.9-.3-.66-.5-.79-1.44-.29-2.1l13.15-17.44c.44-.58,1.23-.76,1.88-.43l4.96,2.51,22.37-40.62c.4-.73,1.32-.99,2.04-.59.73.4.99,1.31.59,2.04l-23.07,41.89c-.39.71-1.27.98-1.99.61l-5.13-2.6-12.4,16.44c-.29.39-.74.6-1.2.6Z"/>
  <path class="st0" d="M41.78,152.58c-.4,0-.8-.16-1.1-.48-.56-.61-.53-1.56.08-2.12l16.17-14.97,5.17-6.58-3.5.15c-.58.02-1.1-.28-1.38-.77s-.24-1.11.08-1.58l3.69-5.34s.04-.06.06-.09l4.34-5.39c.52-.64,1.46-.75,2.11-.23.65.52.75,1.46.23,2.11l-4.3,5.35-1.95,2.81,3.74-.16c.59-.04,1.13.29,1.4.81.27.52.21,1.15-.15,1.61l-7.25,9.24c-.05.06-.1.12-.16.17l-16.25,15.05c-.29.27-.65.4-1.02.4Z"/>
</svg>